<svg width="106" height="52" viewBox="0 0 106 52" fill="none" xmlns="http://www.w3.org/2000/svg">
<path d="M24.1602 27.7578L23.5742 36H1.91406V34.6133C2.22656 34.5872 2.67578 34.5417 3.26172 34.4766C3.86068 34.4115 4.27734 34.3268 4.51172 34.2227C4.90234 34.0534 5.18229 33.806 5.35156 33.4805C5.53385 33.1549 5.625 32.7383 5.625 32.2305V12.3867C5.625 11.944 5.54688 11.5534 5.39062 11.2148C5.2474 10.8763 4.95443 10.6029 4.51172 10.3945C4.21224 10.2383 3.78906 10.0885 3.24219 9.94531C2.70833 9.78906 2.26562 9.69792 1.91406 9.67188V8.28516H13.6133V9.67188C13.2487 9.6849 12.7734 9.75 12.1875 9.86719C11.6146 9.98438 11.1979 10.0885 10.9375 10.1797C10.4948 10.3359 10.1888 10.6029 10.0195 10.9805C9.86328 11.3581 9.78516 11.7617 9.78516 12.1914V30.8047C9.78516 31.6641 9.82422 32.3346 9.90234 32.8164C9.99349 33.2852 10.1953 33.6497 10.5078 33.9102C10.8073 34.1445 11.25 34.3008 11.8359 34.3789C12.4349 34.444 13.2682 34.4766 14.3359 34.4766C14.8177 34.4766 15.319 34.4635 15.8398 34.4375C16.3607 34.4115 16.8555 34.3594 17.3242 34.2812C17.7799 34.2031 18.1966 34.099 18.5742 33.9688C18.9648 33.8255 19.2513 33.6497 19.4336 33.4414C19.9674 32.8424 20.5859 31.9375 21.2891 30.7266C22.0052 29.5026 22.5 28.513 22.7734 27.7578H24.1602ZM45.8375 11.5664C47.0615 12.8424 48.0185 14.3854 48.7086 16.1953C49.3987 17.9922 49.7437 19.9844 49.7437 22.1719C49.7437 24.3724 49.3922 26.3711 48.6891 28.168C47.9859 29.9648 47.0094 31.4948 45.7594 32.7578C44.5484 34.0078 43.1422 34.9714 41.5406 35.6484C39.9391 36.3255 38.2333 36.6641 36.4234 36.6641C34.4964 36.6641 32.7125 36.306 31.0719 35.5898C29.4443 34.8607 28.0445 33.8516 26.8727 32.5625C25.7008 31.2995 24.7763 29.7695 24.0992 27.9727C23.4352 26.1628 23.1031 24.2292 23.1031 22.1719C23.1031 19.9193 23.4547 17.9141 24.1578 16.1562C24.8609 14.3854 25.831 12.8555 27.068 11.5664C28.2919 10.2904 29.7112 9.3138 31.3258 8.63672C32.9534 7.95964 34.6526 7.62109 36.4234 7.62109C38.2594 7.62109 39.9911 7.96615 41.6187 8.65625C43.2464 9.34635 44.6526 10.3164 45.8375 11.5664ZM42.9273 31.2148C43.6565 30.0299 44.1839 28.6888 44.5094 27.1914C44.8479 25.694 45.0172 24.0208 45.0172 22.1719C45.0172 20.2708 44.8284 18.526 44.4508 16.9375C44.0862 15.349 43.5458 13.9948 42.8297 12.875C42.1135 11.7682 41.2151 10.9089 40.1344 10.2969C39.0536 9.67188 37.8167 9.35938 36.4234 9.35938C34.8609 9.35938 33.5328 9.71745 32.4391 10.4336C31.3453 11.1497 30.4534 12.1068 29.7633 13.3047C29.1122 14.4505 28.624 15.7917 28.2984 17.3281C27.9859 18.8646 27.8297 20.4792 27.8297 22.1719C27.8297 24.0469 27.999 25.7396 28.3375 27.25C28.676 28.7604 29.2099 30.1016 29.9391 31.2734C30.6422 32.4193 31.5276 33.3177 32.5953 33.9688C33.663 34.6068 34.9391 34.9258 36.4234 34.9258C37.8167 34.9258 39.0732 34.6003 40.193 33.9492C41.3128 33.2982 42.2242 32.3867 42.9273 31.2148Z" fill="#3A6EA5"/>
<path d="M77.4367 24.9258C77.1242 24.9648 76.701 25.0299 76.1672 25.1211C75.6464 25.1992 75.2232 25.3164 74.8977 25.4727C74.507 25.668 74.2271 25.9479 74.0578 26.3125C73.9016 26.6641 73.8234 27.0807 73.8234 27.5625V29.7109C73.8234 31.2734 73.8299 32.3281 73.843 32.875C73.869 33.4219 73.8951 33.8711 73.9211 34.2227C72.1893 35.0039 70.4641 35.6029 68.7453 36.0195C67.0266 36.4362 65.3404 36.6445 63.6867 36.6445C61.9159 36.6445 60.2102 36.3125 58.5695 35.6484C56.9289 34.9844 55.4966 34.0404 54.2727 32.8164C53.0357 31.5794 52.0526 30.0755 51.3234 28.3047C50.5943 26.5339 50.2297 24.5547 50.2297 22.3672C50.2297 20.2578 50.5747 18.3047 51.2648 16.5078C51.968 14.6979 52.9576 13.1289 54.2336 11.8008C55.4706 10.4987 56.9419 9.48958 58.6477 8.77344C60.3664 8.04427 62.2023 7.67969 64.1555 7.67969C65.718 7.67969 67.0786 7.86849 68.2375 8.24609C69.3964 8.6237 70.4185 9.07943 71.3039 9.61328L72.1047 8.28516H73.6672L73.843 17.9727H72.2414C71.968 16.9049 71.6294 15.8568 71.2258 14.8281C70.8221 13.7865 70.3013 12.8555 69.6633 12.0352C69.0253 11.2148 68.244 10.5638 67.3195 10.082C66.4081 9.58724 65.3143 9.33984 64.0383 9.33984C62.6451 9.33984 61.4016 9.6263 60.3078 10.1992C59.2141 10.7591 58.2635 11.599 57.4562 12.7188C56.662 13.7995 56.05 15.1471 55.6203 16.7617C55.1906 18.3763 54.9758 20.1797 54.9758 22.1719C54.9758 23.9297 55.1841 25.5898 55.6008 27.1523C56.0305 28.7018 56.649 30.043 57.4562 31.1758C58.2635 32.3346 59.2727 33.2461 60.4836 33.9102C61.6945 34.5742 63.0682 34.9062 64.6047 34.9062C65.7505 34.9062 66.7922 34.7305 67.7297 34.3789C68.6802 34.0273 69.3508 33.6562 69.7414 33.2656C69.8456 32.5885 69.8977 31.9049 69.8977 31.2148C69.9107 30.5247 69.9172 29.9388 69.9172 29.457V27.9336C69.9172 27.3867 69.8391 26.9049 69.6828 26.4883C69.5396 26.0586 69.2336 25.7461 68.7648 25.5508C68.3352 25.3555 67.7492 25.2122 67.007 25.1211C66.2779 25.0169 65.7049 24.9518 65.2883 24.9258V23.5H77.4367V24.9258ZM99.4266 11.5664C100.651 12.8424 101.608 14.3854 102.298 16.1953C102.988 17.9922 103.333 19.9844 103.333 22.1719C103.333 24.3724 102.981 26.3711 102.278 28.168C101.575 29.9648 100.598 31.4948 99.3484 32.7578C98.1375 34.0078 96.7312 34.9714 95.1297 35.6484C93.5281 36.3255 91.8224 36.6641 90.0125 36.6641C88.0854 36.6641 86.3016 36.306 84.6609 35.5898C83.0333 34.8607 81.6336 33.8516 80.4617 32.5625C79.2898 31.2995 78.3654 29.7695 77.6883 27.9727C77.0242 26.1628 76.6922 24.2292 76.6922 22.1719C76.6922 19.9193 77.0437 17.9141 77.7469 16.1562C78.45 14.3854 79.42 12.8555 80.657 11.5664C81.881 10.2904 83.3003 9.3138 84.9148 8.63672C86.5424 7.95964 88.2417 7.62109 90.0125 7.62109C91.8484 7.62109 93.5802 7.96615 95.2078 8.65625C96.8354 9.34635 98.2417 10.3164 99.4266 11.5664ZM96.5164 31.2148C97.2456 30.0299 97.7729 28.6888 98.0984 27.1914C98.437 25.694 98.6062 24.0208 98.6062 22.1719C98.6062 20.2708 98.4174 18.526 98.0398 16.9375C97.6753 15.349 97.1349 13.9948 96.4187 12.875C95.7026 11.7682 94.8042 10.9089 93.7234 10.2969C92.6427 9.67188 91.4057 9.35938 90.0125 9.35938C88.45 9.35938 87.1219 9.71745 86.0281 10.4336C84.9344 11.1497 84.0424 12.1068 83.3523 13.3047C82.7013 14.4505 82.213 15.7917 81.8875 17.3281C81.575 18.8646 81.4187 20.4792 81.4187 22.1719C81.4187 24.0469 81.588 25.7396 81.9266 27.25C82.2651 28.7604 82.799 30.1016 83.5281 31.2734C84.2312 32.4193 85.1167 33.3177 86.1844 33.9688C87.2521 34.6068 88.5281 34.9258 90.0125 34.9258C91.4057 34.9258 92.6622 34.6003 93.782 33.9492C94.9018 33.2982 95.8133 32.3867 96.5164 31.2148Z" fill="#E9EAEB"/>
<path d="M11.1399 41.03V48H10.2299V44.84H6.67994V48H5.76994V41.03H6.67994V44.09H10.2299V41.03H11.1399ZM36.8038 41.77V44.1H39.3438V44.85H36.8038V47.25H39.6438V48H35.8938V41.02H39.6438V41.77H36.8038ZM67.8907 48L66.2307 45.15H65.1307V48H64.2207V41.03H66.4707C66.9974 41.03 67.4407 41.12 67.8007 41.3C68.1674 41.48 68.4407 41.7233 68.6207 42.03C68.8007 42.3367 68.8907 42.6867 68.8907 43.08C68.8907 43.56 68.7507 43.9833 68.4707 44.35C68.1974 44.7167 67.7841 44.96 67.2307 45.08L68.9807 48H67.8907ZM65.1307 44.42H66.4707C66.9641 44.42 67.3341 44.3 67.5807 44.06C67.8274 43.8133 67.9507 43.4867 67.9507 43.08C67.9507 42.6667 67.8274 42.3467 67.5807 42.12C67.3407 41.8933 66.9707 41.78 66.4707 41.78H65.1307V44.42ZM94.4147 41.77V44.1H96.9547V44.85H94.4147V47.25H97.2547V48H93.5047V41.02H97.2547V41.77H94.4147Z" fill="#E9EAEB"/>
</svg>
